<svg xmlns="http://www.w3.org/2000/svg" fill="none" viewBox="0 0 100 100">
  <path fill="#DBDCDD" d="M93.75 10.669 89.331 6.25 6.25 89.331l4.419 4.419 6.25-6.25H81.25a6.26 6.26 0 0 0 6.25-6.25V16.919l6.25-6.25ZM81.25 81.25H23.169l24.353-24.353 7.434 7.434a6.25 6.25 0 0 0 8.838 0l4.956-4.956 12.5 12.49v9.385Zm0-18.225-8.081-8.081a6.25 6.25 0 0 0-8.838 0L59.375 59.9l-7.428-7.428L81.25 23.169v39.856Zm-62.5 5.725v-9.375l15.625-15.616 4.29 4.294 4.426-4.425-4.297-4.297a6.25 6.25 0 0 0-8.838 0L18.75 50.537V18.75h50V12.5h-50a6.257 6.257 0 0 0-6.25 6.25v50h6.25Z"/>
</svg>
