<svg xmlns="http://www.w3.org/2000/svg" width="140" height="19" fill="none">
  <g clip-path="url(#a)">
    <path fill="#fff" d="M98.234 18.11h32.718A9.048 9.048 0 0 0 140 9.064 9.043 9.043 0 0 0 134.418.69a9.043 9.043 0 0 0-3.466-.69H98.234a9.047 9.047 0 0 0-9.048 9.063 9.047 9.047 0 0 0 9.047 9.048Zm-93.062.026h3.993V3.543h5.172V0H0v3.533h5.172v14.603Zm14.388 0h3.994V4.224h.05l4.583 13.902h3.073l4.736-13.902h.051v13.902h3.994V0h-6.016l-4.2 11.828h-.05L25.602 0H19.56v18.136ZM45.643.061h5.99c1.395.003 2.784.175 4.138.512a9.483 9.483 0 0 1 3.415 1.578 7.727 7.727 0 0 1 2.32 2.826 9.474 9.474 0 0 1 .855 4.224 8.659 8.659 0 0 1-.83 3.881 8.347 8.347 0 0 1-2.243 2.817 9.85 9.85 0 0 1-3.251 1.725c-1.25.397-2.554.596-3.866.589h-6.528V.061Zm3.993 14.44h2.049c.861.006 1.72-.089 2.56-.282a5.417 5.417 0 0 0 2.079-.906 4.47 4.47 0 0 0 1.372-1.716c.36-.818.534-1.706.512-2.6a5.054 5.054 0 0 0-.512-2.315 4.696 4.696 0 0 0-1.347-1.628 5.945 5.945 0 0 0-1.96-.958 8.735 8.735 0 0 0-2.397-.322h-2.355V14.5ZM68.147.06h6.76c.792 0 1.585.057 2.37.17a6.483 6.483 0 0 1 2.135.665 4.066 4.066 0 0 1 1.536 1.393 4.27 4.27 0 0 1 .59 2.38 3.83 3.83 0 0 1-.856 2.56 4.675 4.675 0 0 1-2.268 1.445v.03c.567.082 1.117.254 1.628.513.472.237.897.558 1.254.947.354.39.627.845.804 1.341.191.525.286 1.08.282 1.639a4.362 4.362 0 0 1-.615 2.396 4.773 4.773 0 0 1-1.587 1.536 6.85 6.85 0 0 1-2.186.845c-.796.17-1.608.257-2.422.256h-7.425V.061Zm3.994 7.246h2.893c.307.001.613-.033.912-.103.285-.062.558-.174.804-.333.24-.154.438-.365.578-.614.15-.283.224-.601.215-.922a1.69 1.69 0 0 0-.225-.932 1.75 1.75 0 0 0-.63-.578 3.108 3.108 0 0 0-.906-.292 5.068 5.068 0 0 0-.947-.092H72.12l.02 3.866Zm0 7.501h3.585c.315 0 .629-.034.937-.102.305-.063.596-.185.855-.359.258-.17.474-.398.63-.665.168-.306.25-.65.24-.999a1.618 1.618 0 0 0-.317-1.024 2.047 2.047 0 0 0-.81-.604 4.213 4.213 0 0 0-1.023-.282 7.73 7.73 0 0 0-1.05-.077h-3.021l-.026 4.112Z"/>
  </g>
  <defs>
    <clipPath id="a">
      <path fill="#fff" d="M0 0h140v18.187H0z"/>
    </clipPath>
  </defs>
</svg>
